<?xml version="1.0" encoding="UTF-8" standalone="no"?><!DOCTYPE svg PUBLIC "-//W3C//DTD SVG 1.1//EN" "http://www.w3.org/Graphics/SVG/1.1/DTD/svg11.dtd"><svg width="100%" height="100%" viewBox="0 0 523 199" version="1.1" xmlns="http://www.w3.org/2000/svg" xmlns:xlink="http://www.w3.org/1999/xlink" xml:space="preserve" xmlns:serif="http://www.serif.com/" style="fill-rule:evenodd;clip-rule:evenodd;stroke-linecap:round;stroke-linejoin:round;stroke-miterlimit:1.5;"><g><path d="M450.163,166.775l-0.05,4.486l-3.559,-2.732c1.341,0.464 3.145,-0.413 3.609,-1.754Z" style="fill:#fff;"/><path d="M432.497,135.024c-0,0 12.04,24.767 16.212,33.35" style="fill:none;stroke:#fff;stroke-width:1.34px;"/><path d="M446.053,92.308l3.861,-2.284l-0.489,4.459c-0.299,-1.386 -1.985,-2.474 -3.372,-2.175Z" style="fill:#fff;"/><path d="M432.497,117.024c-0,0 11.267,-17.466 15.677,-24.303" style="fill:none;stroke:#fff;stroke-width:1.34px;"/><path d="M445.875,124.073l4.039,1.951l-3.985,2.061c0.99,-1.017 0.962,-3.023 -0.054,-4.012Z" style="fill:#fff;"/><path d="M432.497,126.261c-0,-0 9.176,-0.125 14.208,-0.193" style="fill:none;stroke:#fff;stroke-width:1.34px;"/><path d="M87.144,75.004l3.353,-2.98l0.372,4.47c-0.558,-1.303 -2.421,-2.048 -3.725,-1.49Z" style="fill:#fff;"/><path d="M72.497,117.024c-0,0 12.791,-31.977 16.808,-42.02" style="fill:none;stroke:#fff;stroke-width:1.34px;"/><path d="M90.688,175.319l-0.381,4.469l-3.347,-2.986c1.303,0.561 3.167,-0.181 3.728,-1.483Z" style="fill:#fff;"/><path d="M72.497,135.024c-0,0 12.641,31.772 16.624,41.782" style="fill:none;stroke:#fff;stroke-width:1.34px;"/><path d="M357.161,138.023l3.336,-2.999l0.397,4.468c-0.566,-1.3 -2.432,-2.035 -3.733,-1.469Z" style="fill:#fff;"/><path d="M342.696,180.261c-0,-0 12.657,-32.165 16.626,-42.25" style="fill:none;stroke:#fff;stroke-width:1.34px;"/><path d="M360.902,113.514l-0.405,4.467l-3.331,-3.004c1.3,0.568 3.168,-0.163 3.736,-1.463Z" style="fill:#fff;"/><path d="M342.497,72.024c-0,0 12.837,32.775 16.829,42.969" style="fill:none;stroke:#fff;stroke-width:1.34px;"/><path d="M179.402,94.558l1.492,4.23l-4.279,-1.344c1.418,-0.025 2.811,-1.468 2.787,-2.886Z" style="fill:#fff;"/><path d="M162.497,81.024c-0,0 11.148,10.765 16.088,15.535" style="fill:none;stroke:#fff;stroke-width:1.34px;"/><path d="M177.466,111.331l3.031,-3.307l0.827,4.409c-0.689,-1.24 -2.618,-1.791 -3.858,-1.102Z" style="fill:#fff;"/><path d="M162.497,171.024c-0,0 13.502,-47.258 17.118,-59.914" style="fill:none;stroke:#fff;stroke-width:1.34px;stroke-dasharray:2.67,2.67,0,0,0,0;"/><path d="M266.489,178.246l4.008,2.015l-4.016,1.997c1.005,-1.001 1.009,-3.007 0.008,-4.012Z" style="fill:#fff;"/><path d="M162.686,180.024c0,0 86.701,0.19 104.601,0.23" style="fill:none;stroke:#fff;stroke-width:1.34px;"/><path d="M176.27,45.816l4.227,-1.501l-1.336,4.282c-0.027,-1.418 -1.473,-2.809 -2.891,-2.781Z" style="fill:#fff;"/><path d="M162.497,63.024c-0,0 10.959,-11.39 15.775,-16.396" style="fill:none;stroke:#fff;stroke-width:1.34px;"/><path d="M266.278,82.547l4.219,-1.523l-1.313,4.289c-0.035,-1.418 -1.488,-2.801 -2.906,-2.766Z" style="fill:#fff;"/><path d="M252.686,99.733c0,0 10.827,-11.372 15.598,-16.384" style="fill:none;stroke:#fff;stroke-width:1.34px;"/><path d="M304.449,50.034l2.048,3.99l1.964,-4.033c-0.993,1.014 -2.999,1.035 -4.012,0.043Z" style="fill:#fff;"/><path d="M304.344,40.057l1.963,-4.033l2.049,3.991c-1.014,-0.992 -3.02,-0.971 -4.012,0.042Z" style="fill:#fff;"/><path d="M306.463,50.815c-0.034,-3.27 -0.087,-8.312 -0.122,-11.581" style="fill:none;stroke:#fff;stroke-width:1.34px;"/><path d="M269.185,58.735l1.312,4.289l-4.219,-1.523c1.418,0.035 2.871,-1.348 2.907,-2.766Z" style="fill:#fff;"/><path d="M252.696,44.315c-0,0 10.82,11.372 15.589,16.384" style="fill:none;stroke:#fff;stroke-width:1.34px;"/></g><rect x="449.914" y="63.497" width="71.512" height="35.527" style="fill:#dcdcdc;stroke:#000;stroke-width:0.99px;stroke-linecap:butt;"/><rect x="0.497" y="108.024" width="71.512" height="35.527" style="fill:#dcdcdc;stroke:#000;stroke-width:0.99px;stroke-linecap:butt;"/><rect x="360.497" y="108.497" width="71.512" height="35.527" style="fill:#dcdcdc;stroke:#000;stroke-width:0.99px;stroke-linecap:butt;"/><rect x="90.497" y="54.497" width="71.512" height="35.527" style="fill:#dcdcdc;stroke:#000;stroke-width:0.99px;stroke-linecap:butt;"/><rect x="180.696" y="81.497" width="71.512" height="35.527" style="fill:#dcdcdc;stroke:#000;stroke-width:0.99px;stroke-linecap:butt;"/><path d="M251.721,36.379l-0,17.763c-0,4.903 -3.98,8.882 -8.882,8.882l-53.749,0c-4.902,0 -8.882,-3.979 -8.882,-8.882l0,-17.763c0,-4.902 3.98,-8.882 8.882,-8.882l53.749,-0c4.902,-0 8.882,3.98 8.882,8.882Z" style="fill:#ffb5e2;stroke:#000;stroke-width:0.99px;stroke-linecap:butt;"/><path d="M342.009,9.379l0,17.763c0,4.903 -3.979,8.882 -8.881,8.882l-53.749,0c-4.902,0 -8.882,-3.979 -8.882,-8.882l-0,-17.763c-0,-4.902 3.98,-8.882 8.882,-8.882l53.749,-0c4.902,-0 8.881,3.98 8.881,8.882Z" style="fill:#ffb5e2;stroke:#000;stroke-width:0.99px;stroke-linecap:butt;"/><rect x="270.497" y="54.024" width="71.512" height="35.527" style="fill:#dcdcdc;stroke:#000;stroke-width:0.99px;stroke-linecap:butt;"/><rect x="90.109" y="162.497" width="71.512" height="35.527" style="fill:#dcdcdc;stroke:#000;stroke-width:0.99px;stroke-linecap:butt;"/><rect x="270.696" y="162.497" width="71.512" height="35.527" style="fill:#dcdcdc;stroke:#000;stroke-width:0.99px;stroke-linecap:butt;"/><rect x="450.113" y="108.497" width="71.697" height="35.527" style="fill:#dcdcdc;stroke:#000;stroke-width:0.99px;stroke-linecap:butt;"/><rect x="450.314" y="153.497" width="71.695" height="35.527" style="fill:#d5f4d9;stroke:#000;stroke-width:0.99px;stroke-linecap:butt;"/><g transform="matrix(12,0,0,12,512.7,85.0829)"></g><text x="459.327px" y="85.083px" style="font-family:'Arial-ItalicMT', 'Arial';font-style:italic;font-size:12px;">Boutiques</text><g transform="matrix(12,0,0,12,47.7174,129.61)"></g><text x="25.475px" y="129.61px" style="font-family:'Arial-ItalicMT', 'Arial';font-style:italic;font-size:12px;">T<tspan x="31.704px 38.378px " y="129.61px 129.61px ">oo</tspan>l</text><g transform="matrix(12,0,0,12,408.265,130.083)"></g><text x="384.927px" y="130.083px" style="font-family:'Arial-ItalicMT', 'Arial';font-style:italic;font-size:12px;">Styx</text><g transform="matrix(12,0,0,12,153.277,76.0829)"></g><text x="99.916px" y="76.083px" style="font-family:'Arial-ItalicMT', 'Arial';font-style:italic;font-size:12px;">Help docs</text><g transform="matrix(12,0,0,12,228.467,103.083)"></g><text x="205.123px" y="103.083px" style="font-family:'Arial-ItalicMT', 'Arial';font-style:italic;font-size:12px;">LLM</text><g transform="matrix(12,0,0,12,235.406,49.3193)"></g><text x="196.722px" y="49.319px" style="font-family:'Arial-ItalicMT', 'Arial';font-style:italic;font-size:12px;">Human</text><g transform="matrix(0.24,0,0,0.24,165.576,-228.696)"><text x="505.98px" y="1020.08px" style="font-family:'Arial-ItalicMT', 'Arial';font-style:italic;font-size:50px;">Human</text><g transform="matrix(50,0,0,50,675.462,1071.71)"></g><text x="497.679px" y="1071.71px" style="font-family:'Arial-ItalicMT', 'Arial';font-style:italic;font-size:50px;">(review)</text></g><g transform="matrix(12,0,0,12,333.283,75.6103)"></g><text x="279.91px" y="75.61px" style="font-family:'Arial-ItalicMT', 'Arial';font-style:italic;font-size:12px;">Boutiques</text><g transform="matrix(12,0,0,12,159.897,184.083)"></g><text x="92.52px" y="184.083px" style="font-family:'Arial-ItalicMT', 'Arial';font-style:italic;font-size:12px;">Source code</text><g transform="matrix(0.24,0,0,0.24,165.774,-66.6957)"><text x="450.928px" y="1019.09px" style="font-family:'Arial-ItalicMT', 'Arial';font-style:italic;font-size:50px;">T<tspan x="476.88px 504.688px " y="1019.09px 1019.09px ">oo</tspan>l-internal</text><g transform="matrix(50,0,0,50,701.526,1070.73)"></g><text x="473.646px" y="1070.73px" style="font-family:'Arial-ItalicMT', 'Arial';font-style:italic;font-size:50px;">CLI model</text></g><g transform="matrix(12,0,0,12,499.447,130.083)"></g><text x="472.781px" y="130.083px" style="font-family:'Arial-ItalicMT', 'Arial';font-style:italic;font-size:12px;">CWL</text><g transform="matrix(0.24,0,0,0.24,345.393,-75.6957)"><text x="510.135px" y="1019.09px" style="font-family:'Arial-ItalicMT', 'Arial';font-style:italic;font-size:50px;">Python</text><g transform="matrix(50,0,0,50,683.829,1070.73)"></g><text x="492.105px" y="1070.73px" style="font-family:'Arial-ItalicMT', 'Arial';font-style:italic;font-size:50px;">Wrapper</text></g></svg>